<svg xmlns="http://www.w3.org/2000/svg" viewBox="0 0 20 20"><path d="M13 6.39l-1.27-1.27-6.34 6.34c-1.05 1.05-1.05 2.76 0 3.81s2.76 1.05 3.81 0l7.61-7.61c1.75-1.75 1.75-4.59 0-6.34-1.75-1.75-4.59-1.75-6.34 0l-7.99 7.99c-0.01 0.01-0.01 0.01-0.02 0.02-2.44 2.44-2.44 6.4 0 8.85 2.44 2.44 6.4 2.44 8.85 0 0.01-0.01 0.01-0.01 0.02-0.02l0 0 5.46-5.46-1.27-1.27-5.46 5.45c-0.01 0.01-0.01 0.01-0.02 0.02-1.74 1.74-4.57 1.74-6.31 0-1.74-1.74-1.74-4.57 0-6.31 0.01-0.01 0.01-0.01 0.02-0.02l-0-0 7.99-7.99c1.05-1.05 2.76-1.05 3.81 0s1.05 2.76 0 3.81l-7.61 7.61c-0.35 0.35-0.92 0.35-1.27 0-0.35-0.35-0.35-0.92 0-1.27l6.34-6.34z"/></svg>