<svg xmlns="http://www.w3.org/2000/svg" viewBox="0 0 20 20"><path d="M2.5 6.25v12.5c0 0.69 0.56 1.25 1.25 1.25h11.25c0.69 0 1.25-0.56 1.25-1.25v-12.5h-13.75zM6.25 17.5h-1.25v-8.75h1.25v8.75zM8.75 17.5h-1.25v-8.75h1.25v8.75zM11.25 17.5h-1.25v-8.75h1.25v8.75zM13.75 17.5h-1.25v-8.75h1.25v8.75z"/><path d="M16.56 2.5h-4.06v-1.56c0-0.52-0.42-0.94-0.94-0.94h-4.38c-0.52 0-0.94 0.42-0.94 0.94v1.56h-4.06c-0.52 0-0.94 0.42-0.94 0.94v1.56h16.25v-1.56c0-0.52-0.42-0.94-0.94-0.94zM11.25 2.5h-3.75v-1.23h3.75v1.23z"/></svg>