<svg xmlns="http://www.w3.org/2000/svg" viewBox="0 0 20 20"><path d="M4.38 2.5h-3.75c-0.34 0-0.63 0.28-0.63 0.63v13.75c0 0.34 0.28 0.63 0.63 0.63h3.75c0.34 0 0.63-0.28 0.63-0.63v-13.75c0-0.34-0.28-0.63-0.63-0.63zM3.75 6.25h-2.5v-1.25h2.5v1.25z"/><path d="M10.63 2.5h-3.75c-0.34 0-0.63 0.28-0.63 0.63v13.75c0 0.34 0.28 0.63 0.63 0.63h3.75c0.34 0 0.63-0.28 0.63-0.63v-13.75c0-0.34-0.28-0.63-0.63-0.63zM10 6.25h-2.5v-1.25h2.5v1.25z"/><path d="M14.94 3.47l-3.35 1.69c-0.31 0.15-0.43 0.53-0.28 0.84l5.62 11.16c0.15 0.31 0.53 0.43 0.84 0.28l3.35-1.69c0.31-0.15 0.43-0.53 0.28-0.84l-5.62-11.16c-0.15-0.31-0.53-0.43-0.84-0.28z"/></svg>