<svg xmlns="http://www.w3.org/2000/svg" viewBox="0 0 20 20"><path d="M11.25 1.25c0-0.69-0.56-1.25-1.25-1.25s-1.25 0.56-1.25 1.25v11.25h-1.25v2.5h1.25v3.75c0 0.69 0.56 1.25 1.25 1.25s1.25-0.56 1.25-1.25v-3.75h1.25v-2.5h-1.25v-11.25zM3.75 1.25c0-0.69-0.56-1.25-1.25-1.25s-1.25 0.56-1.25 1.25v6.25h-1.25v2.5h1.25v8.75c0 0.69 0.56 1.25 1.25 1.25s1.25-0.56 1.25-1.25v-8.75h1.25v-2.5h-1.25v-6.25zM20 5h-1.25v-3.75c0-0.69-0.56-1.25-1.25-1.25s-1.25 0.56-1.25 1.25v3.75h-1.25v2.5h1.25v11.25c0 0.69 0.56 1.25 1.25 1.25s1.25-0.56 1.25-1.25v-11.25h1.25v-2.5z"/></svg>