<svg xmlns="http://www.w3.org/2000/svg" viewBox="0 0 20 20"><path d="M17.93 6.97c-0.43-0.59-1.04-1.28-1.7-1.95s-1.36-1.27-1.95-1.7c-1.01-0.74-1.5-0.82-1.78-0.82h-7.19c-0.86 0-1.56 0.7-1.56 1.56v14.38c0 0.86 0.7 1.56 1.56 1.56h11.88c0.86 0 1.56-0.7 1.56-1.56v-9.69c0-0.28-0.09-0.77-0.82-1.78zM15.34 5.91c0.6 0.6 1.07 1.14 1.42 1.59h-3.01v-3.01c0.45 0.35 0.99 0.82 1.59 1.42v0zM17.5 18.44c0 0.17-0.14 0.31-0.31 0.31h-11.88c-0.17 0-0.31-0.14-0.31-0.31v-14.38c0-0.17 0.14-0.31 0.31-0.31 0 0 7.19-0 7.19 0v4.38c0 0.35 0.28 0.63 0.63 0.63h4.38v9.69z"/><path d="M11.78 0.82c-1.01-0.74-1.5-0.82-1.78-0.82h-7.19c-0.86 0-1.56 0.7-1.56 1.56v14.38c0 0.75 0.54 1.39 1.25 1.53v-15.91c0-0.17 0.14-0.31 0.31-0.31h9.51c-0.19-0.16-0.37-0.3-0.55-0.43z"/></svg>