<svg xmlns="http://www.w3.org/2000/svg" viewBox="0 0 20 20"><path d="M5.79 8.75c-1.02 0.03-1.93 0.47-2.59 1.25h-1.31c-0.98 0-1.89-0.47-1.89-1.55 0-0.79-0.03-3.45 1.21-3.45 0.21 0 1.22 0.83 2.54 0.83 0.45 0 0.88-0.08 1.3-0.22-0.03 0.22-0.05 0.43-0.05 0.64 0 0.89 0.28 1.77 0.79 2.5zM16.25 14.97c0 1.58-1.05 2.53-2.61 2.53h-8.54c-1.56 0-2.61-0.95-2.61-2.53 0-2.21 0.52-5.6 3.38-5.6 0.33 0 1.54 1.36 3.5 1.36s3.16-1.36 3.5-1.36c2.86 0 3.38 3.39 3.38 5.6zM6.25 2.5c0 1.38-1.12 2.5-2.5 2.5s-2.5-1.12-2.5-2.5 1.12-2.5 2.5-2.5 2.5 1.12 2.5 2.5zM13.13 6.25c0 2.07-1.68 3.75-3.75 3.75s-3.75-1.68-3.75-3.75 1.68-3.75 3.75-3.75 3.75 1.68 3.75 3.75zM18.75 8.45c0 1.08-0.92 1.55-1.89 1.55h-1.31c-0.65-0.78-1.57-1.22-2.59-1.25 0.51-0.73 0.79-1.61 0.79-2.5 0-0.22-0.02-0.43-0.05-0.64 0.42 0.15 0.85 0.22 1.3 0.22 1.32 0 2.33-0.83 2.54-0.83 1.24 0 1.21 2.66 1.21 3.45zM17.5 2.5c0 1.38-1.12 2.5-2.5 2.5s-2.5-1.12-2.5-2.5 1.12-2.5 2.5-2.5 2.5 1.12 2.5 2.5z"/></svg>