<svg xmlns="http://www.w3.org/2000/svg" viewBox="0 0 20 20"><path d="M19.73 17.89l-10.72-9.76 0.5-0.5c0.41-0.41 0.63-0.94 0.66-1.48 0.02-0.01 0.04-0.02 0.06-0.03l2.01-1.26c0.27-0.32 0.25-0.83-0.04-1.12l-3.5-3.51c-0.3-0.3-0.8-0.32-1.12-0.04l-1.25 2.02c-0.01 0.02-0.02 0.04-0.03 0.06-0.54 0.03-1.06 0.26-1.47 0.66l-1.9 1.91c-0.41 0.41-0.63 0.94-0.66 1.48-0.02 0.01-0.04 0.02-0.06 0.03l-2.01 1.26c-0.27 0.32-0.25 0.83 0.04 1.12l3.5 3.51c0.3 0.3 0.8 0.32 1.12 0.04l1.25-2.02c0.01-0.02 0.02-0.04 0.03-0.06 0.54-0.03 1.06-0.26 1.47-0.66l0.55-0.55 9.73 10.74c0.28 0.31 0.72 0.36 0.97 0.11l0.98-0.99c0.25-0.25 0.2-0.69-0.11-0.97z"/></svg>