<svg xmlns="http://www.w3.org/2000/svg" viewBox="0 0 20 20"><path d="M8.6 12.42c-0.26 0-0.52-0.1-0.72-0.3-1.86-1.86-1.86-4.88 0-6.74l3.75-3.75c0.9-0.9 2.1-1.4 3.37-1.4s2.47 0.5 3.37 1.4c1.86 1.86 1.86 4.88 0 6.74l-1.71 1.71c-0.4 0.4-1.04 0.4-1.44 0s-0.4-1.04 0-1.44l1.71-1.71c1.07-1.07 1.07-2.8 0-3.87-0.52-0.52-1.2-0.8-1.93-0.8s-1.42 0.28-1.93 0.8l-3.75 3.75c-1.07 1.07-1.07 2.8 0 3.87 0.4 0.4 0.4 1.04 0 1.44-0.2 0.2-0.46 0.3-0.72 0.3z"/><path d="M5 19.77c-1.27 0-2.47-0.5-3.37-1.4-1.86-1.86-1.86-4.88 0-6.74l1.71-1.71c0.4-0.4 1.04-0.4 1.44 0s0.4 1.04 0 1.44l-1.71 1.71c-1.07 1.07-1.07 2.8 0 3.87 0.52 0.52 1.2 0.8 1.93 0.8s1.42-0.28 1.93-0.8l3.75-3.75c1.07-1.07 1.07-2.8 0-3.87-0.4-0.4-0.4-1.04 0-1.44s1.04-0.4 1.44 0c1.86 1.86 1.86 4.88 0 6.74l-3.75 3.75c-0.9 0.9-2.1 1.4-3.37 1.4z"/></svg>