<svg xmlns="http://www.w3.org/2000/svg" viewBox="0 0 20 20"><path d="M13.94,3.56c-0.32-0.33-0.85-0.33-1.18-0c-0.09,0.09-0.15,0.19-0.19,0.3  c-0.69,1.45-1.46,2.26-2.42,2.74C9.07,7.13,7.83,7.5,5.83,7.5C5.73,7.5,5.62,7.52,5.52,7.56C5.31,7.65,5.15,7.81,5.06,8.01  c-0.08,0.2-0.08,0.43,0,0.64c0.04,0.1,0.1,0.2,0.18,0.27l2.7,2.7L4.17,16.67l5.04-3.78l2.7,2.7  c0.08,0.08,0.17,0.14,0.27,0.18C12.28,15.81,12.39,15.83,12.5,15.83s0.22-0.02,0.32-0.07c0.2-0.09,0.37-0.25,0.45-0.45  C13.31,15.22,13.33,15.11,13.33,15c0-2,0.37-3.24,0.9-4.31c0.48-0.96,1.3-1.73,2.74-2.42  c0.11-0.04,0.21-0.1,0.3-0.19c0.32-0.33,0.32-0.85-0-1.18L13.94,3.56z"/></svg>