<svg xmlns="http://www.w3.org/2000/svg" viewBox="0 0 20 20"><path d="M18.75 10c0 4.83-3.92 8.75-8.75 8.75s-8.75-3.92-8.75-8.75c0-2.13 0.77-4.08 2.03-5.59 0.1-0.18 0.23-0.33 0.4-0.44 0.03-0.03 0.05-0.06 0.08-0.09 0 0.01 0.01 0.03 0.01 0.04 0.18-0.1 0.39-0.16 0.61-0.16 0.69 0 1.25 0.56 1.25 1.25 0 0.44-0.22 0.82-0.56 1.04 0.02 0.02 0.04 0.04 0.06 0.05-0.86 1.07-1.38 2.43-1.38 3.91 0 3.45 2.8 6.25 6.25 6.25s6.25-2.8 6.25-6.25c0-1.48-0.52-2.84-1.38-3.91 0.02-0.02 0.04-0.04 0.06-0.05-0.34-0.22-0.56-0.61-0.56-1.04 0-0.69 0.56-1.25 1.25-1.25 0.22 0 0.43 0.06 0.61 0.16 0-0.01 0.01-0.03 0.01-0.04 0.03 0.03 0.05 0.06 0.08 0.09 0.17 0.11 0.3 0.27 0.4 0.44 1.26 1.52 2.03 3.46 2.03 5.59zM10.63 11.25h-1.25c-0.35 0-0.63-0.28-0.63-0.63v-8.75c0-0.35 0.28-0.63 0.63-0.63h1.25c0.35 0 0.63 0.28 0.63 0.63v8.75c0 0.35-0.28 0.63-0.63 0.63z"/></svg>