<svg xmlns="http://www.w3.org/2000/svg" viewBox="0 0 20 20"><path d="M 2.39 1.25 L 2.39 2.79 L 6.03 2.79 C 5.73 3.16 5.4 3.57 5.04 4.04 C 4.69 4.5 4.34 4.98 4 5.48 C 3.65 5.97 3.32 6.46 3.01 6.95 C 2.69 7.44 2.42 7.89 2.2 8.28 L 2.2 9.37 L 8.59 9.37 L 8.59 7.84 L 4.45 7.84 C 4.73 7.37 5.05 6.88 5.41 6.36 C 5.77 5.85 6.14 5.35 6.5 4.86 C 6.87 4.38 7.23 3.93 7.57 3.52 C 7.91 3.11 8.21 2.78 8.46 2.52 L 8.46 1.25 L 2.39 1.25 z M 13.87 4.3 C 13.8 4.3 13.72 4.34 13.66 4.41 C 13.61 4.49 13.58 4.59 13.58 4.69 L 13.58 11.96 L 12.51 10.89 C 12.44 10.82 12.34 10.78 12.24 10.78 C 12.14 10.78 12.05 10.82 11.98 10.89 L 10.9 11.96 C 10.83 12.03 10.79 12.13 10.79 12.23 C 10.79 12.33 10.83 12.43 10.9 12.5 L 14.48 16.08 C 14.55 16.15 14.65 16.19 14.75 16.19 C 14.85 16.19 14.95 16.15 15.02 16.08 L 18.6 12.5 C 18.67 12.43 18.71 12.33 18.71 12.23 C 18.71 12.13 18.67 12.03 18.6 11.96 L 17.52 10.89 C 17.45 10.82 17.36 10.78 17.26 10.78 C 17.16 10.78 17.06 10.82 16.99 10.89 L 15.92 11.96 L 15.92 4.69 C 15.92 4.59 15.89 4.49 15.84 4.41 C 15.78 4.34 15.71 4.3 15.63 4.3 L 13.87 4.3 z M 4.52 10.63 C 4.25 11.19 3.99 11.76 3.73 12.35 C 3.48 12.94 3.22 13.57 2.96 14.22 C 2.7 14.88 2.43 15.58 2.16 16.32 C 1.88 17.06 1.59 17.87 1.29 18.75 L 3.19 18.75 C 3.27 18.47 3.37 18.18 3.47 17.88 C 3.58 17.58 3.68 17.29 3.78 16.99 L 6.95 16.99 C 7.05 17.29 7.15 17.58 7.26 17.88 C 7.36 18.18 7.46 18.47 7.55 18.75 L 9.5 18.75 C 9.2 17.87 8.91 17.06 8.64 16.32 C 8.36 15.58 8.09 14.88 7.83 14.22 C 7.57 13.57 7.31 12.94 7.05 12.35 C 6.8 11.76 6.53 11.19 6.27 10.63 L 4.52 10.63 z M 5.36 12.47 C 5.4 12.58 5.46 12.74 5.54 12.95 C 5.62 13.15 5.71 13.38 5.82 13.65 C 5.92 13.92 6.03 14.21 6.15 14.53 C 6.27 14.85 6.39 15.19 6.51 15.54 L 4.21 15.54 C 4.33 15.19 4.45 14.85 4.58 14.53 C 4.7 14.21 4.81 13.92 4.91 13.65 C 5.01 13.38 5.1 13.15 5.18 12.95 C 5.26 12.74 5.32 12.58 5.36 12.47 z"/></svg>