<svg xmlns="http://www.w3.org/2000/svg" viewBox="0 0 20 20"><path d="M 5.4 1.08 C 4.95 1.08 4.55 1.17 4.19 1.36 C 3.83 1.54 3.52 1.82 3.26 2.18 C 3.01 2.54 2.81 2.98 2.67 3.5 C 2.53 4.03 2.47 4.63 2.47 5.31 C 2.47 6.67 2.73 7.72 3.25 8.45 C 3.77 9.18 4.48 9.55 5.4 9.55 C 6.31 9.55 7.03 9.18 7.55 8.45 C 8.07 7.72 8.33 6.67 8.33 5.31 C 8.33 3.95 8.07 2.9 7.55 2.17 C 7.03 1.44 6.31 1.08 5.4 1.08 z M 5.4 2.58 C 5.61 2.58 5.8 2.64 5.95 2.78 C 6.1 2.91 6.21 3.1 6.3 3.34 C 6.38 3.58 6.45 3.87 6.49 4.2 C 6.52 4.53 6.54 4.9 6.54 5.31 C 6.54 5.71 6.52 6.08 6.49 6.42 C 6.45 6.76 6.38 7.05 6.3 7.29 C 6.21 7.53 6.1 7.72 5.95 7.85 C 5.8 7.98 5.61 8.05 5.4 8.05 C 5.18 8.05 5 7.98 4.85 7.85 C 4.71 7.72 4.59 7.53 4.5 7.29 C 4.41 7.05 4.35 6.76 4.31 6.42 C 4.27 6.08 4.25 5.71 4.25 5.31 C 4.25 4.9 4.27 4.53 4.31 4.2 C 4.35 3.87 4.41 3.58 4.5 3.34 C 4.59 3.1 4.71 2.91 4.85 2.78 C 5 2.64 5.18 2.58 5.4 2.58 z M 13.87 4.3 C 13.8 4.3 13.72 4.34 13.66 4.41 C 13.61 4.49 13.58 4.59 13.58 4.69 L 13.58 11.96 L 12.51 10.89 C 12.44 10.82 12.34 10.78 12.24 10.78 C 12.14 10.78 12.05 10.82 11.98 10.89 L 10.9 11.96 C 10.83 12.03 10.79 12.13 10.79 12.23 C 10.79 12.33 10.83 12.43 10.9 12.5 L 14.48 16.08 C 14.55 16.15 14.65 16.19 14.75 16.19 C 14.85 16.19 14.95 16.15 15.02 16.08 L 18.6 12.5 C 18.67 12.43 18.71 12.33 18.71 12.23 C 18.71 12.13 18.67 12.03 18.6 11.96 L 17.52 10.89 C 17.45 10.82 17.36 10.78 17.26 10.78 C 17.16 10.78 17.06 10.82 16.99 10.89 L 15.92 11.96 L 15.92 4.69 C 15.92 4.59 15.89 4.49 15.84 4.41 C 15.78 4.34 15.71 4.3 15.63 4.3 L 13.87 4.3 z M 5.26 10.52 C 4.77 10.52 4.35 10.6 4 10.78 C 3.65 10.95 3.37 11.18 3.14 11.45 C 2.91 11.72 2.75 12.01 2.64 12.34 C 2.54 12.67 2.48 12.99 2.48 13.3 C 2.48 13.68 2.54 14.02 2.65 14.33 C 2.76 14.65 2.93 14.92 3.16 15.14 C 3.39 15.36 3.68 15.53 4.04 15.65 C 4.4 15.77 4.84 15.83 5.34 15.83 C 5.48 15.83 5.65 15.82 5.85 15.78 C 6.05 15.75 6.23 15.69 6.4 15.61 C 6.29 15.96 6.14 16.24 5.95 16.47 C 5.75 16.7 5.52 16.88 5.25 17.01 C 4.98 17.15 4.66 17.25 4.3 17.31 C 3.94 17.36 3.54 17.4 3.09 17.4 C 3.11 17.65 3.12 17.9 3.14 18.13 C 3.16 18.37 3.17 18.61 3.18 18.86 C 4.07 18.85 4.83 18.74 5.48 18.54 C 6.13 18.33 6.67 18.03 7.08 17.63 C 7.5 17.23 7.81 16.74 8.01 16.15 C 8.21 15.57 8.31 14.89 8.31 14.12 C 8.31 12.96 8.05 12.07 7.54 11.45 C 7.03 10.83 6.27 10.52 5.26 10.52 z M 5.31 11.97 C 5.54 11.97 5.74 12.02 5.9 12.13 C 6.06 12.23 6.19 12.38 6.28 12.56 C 6.37 12.74 6.44 12.96 6.48 13.2 C 6.52 13.45 6.54 13.71 6.55 14 C 6.55 14.02 6.55 14.05 6.54 14.08 C 6.54 14.11 6.54 14.14 6.54 14.17 L 6.54 14.28 C 6.44 14.34 6.3 14.39 6.1 14.42 C 5.91 14.46 5.72 14.48 5.54 14.48 C 5.07 14.48 4.74 14.37 4.53 14.17 C 4.32 13.97 4.22 13.66 4.22 13.23 C 4.22 13.09 4.24 12.95 4.28 12.8 C 4.33 12.65 4.39 12.52 4.48 12.39 C 4.56 12.27 4.68 12.16 4.82 12.08 C 4.96 12.01 5.12 11.97 5.31 11.97 z "/></svg>