<svg xmlns="http://www.w3.org/2000/svg" viewBox="0 0 20 20"><path d="M 5.26 1.08 C 4.77 1.08 4.35 1.16 4 1.34 C 3.65 1.52 3.37 1.74 3.14 2.01 C 2.91 2.28 2.75 2.58 2.64 2.91 C 2.54 3.23 2.48 3.55 2.48 3.87 C 2.48 4.24 2.54 4.58 2.65 4.9 C 2.76 5.21 2.93 5.48 3.16 5.7 C 3.39 5.92 3.68 6.09 4.04 6.22 C 4.4 6.34 4.84 6.4 5.34 6.4 C 5.48 6.4 5.65 6.38 5.85 6.34 C 6.05 6.31 6.23 6.25 6.4 6.17 C 6.29 6.52 6.14 6.8 5.95 7.03 C 5.75 7.26 5.52 7.44 5.25 7.57 C 4.98 7.71 4.66 7.81 4.3 7.87 C 3.94 7.93 3.54 7.96 3.09 7.97 C 3.11 8.22 3.12 8.46 3.14 8.69 C 3.16 8.93 3.17 9.17 3.18 9.42 C 4.07 9.41 4.83 9.3 5.48 9.1 C 6.13 8.89 6.67 8.59 7.08 8.19 C 7.5 7.79 7.81 7.3 8.01 6.71 C 8.21 6.13 8.31 5.45 8.31 4.69 C 8.31 3.52 8.05 2.63 7.54 2.01 C 7.03 1.39 6.27 1.08 5.26 1.08 z M 5.31 2.53 C 5.54 2.53 5.74 2.58 5.9 2.69 C 6.06 2.79 6.19 2.94 6.28 3.12 C 6.37 3.3 6.44 3.52 6.48 3.77 C 6.52 4.01 6.54 4.28 6.55 4.56 C 6.55 4.58 6.55 4.61 6.54 4.64 C 6.54 4.67 6.54 4.7 6.54 4.73 L 6.54 4.84 C 6.44 4.9 6.3 4.95 6.1 4.98 C 5.91 5.02 5.72 5.04 5.54 5.04 C 5.07 5.04 4.74 4.94 4.53 4.73 C 4.32 4.53 4.22 4.22 4.22 3.8 C 4.22 3.65 4.24 3.51 4.28 3.36 C 4.33 3.21 4.39 3.08 4.48 2.95 C 4.56 2.83 4.68 2.72 4.82 2.65 C 4.96 2.57 5.12 2.53 5.31 2.53 z M 13.87 4.3 C 13.8 4.3 13.72 4.34 13.66 4.41 C 13.61 4.49 13.58 4.59 13.58 4.69 L 13.58 11.96 L 12.51 10.89 C 12.44 10.82 12.34 10.78 12.24 10.78 C 12.14 10.78 12.05 10.82 11.98 10.89 L 10.9 11.96 C 10.83 12.03 10.79 12.13 10.79 12.23 C 10.79 12.33 10.83 12.43 10.9 12.5 L 14.48 16.08 C 14.55 16.15 14.65 16.19 14.75 16.19 C 14.85 16.19 14.95 16.15 15.02 16.08 L 18.6 12.5 C 18.67 12.43 18.71 12.33 18.71 12.23 C 18.71 12.13 18.67 12.03 18.6 11.96 L 17.52 10.89 C 17.45 10.82 17.36 10.78 17.26 10.78 C 17.16 10.78 17.06 10.82 16.99 10.89 L 15.92 11.96 L 15.92 4.69 C 15.92 4.59 15.89 4.49 15.84 4.41 C 15.78 4.34 15.71 4.3 15.63 4.3 L 13.87 4.3 z M 5.4 10.39 C 4.95 10.39 4.55 10.48 4.19 10.67 C 3.83 10.85 3.52 11.13 3.26 11.49 C 3.01 11.85 2.81 12.29 2.67 12.81 C 2.53 13.33 2.47 13.94 2.47 14.62 C 2.47 15.98 2.73 17.03 3.25 17.76 C 3.77 18.49 4.48 18.86 5.4 18.86 C 6.31 18.86 7.03 18.49 7.55 17.76 C 8.07 17.03 8.33 15.98 8.33 14.62 C 8.33 13.26 8.07 12.21 7.55 11.48 C 7.03 10.75 6.31 10.39 5.4 10.39 z M 5.4 11.89 C 5.61 11.89 5.8 11.95 5.95 12.08 C 6.1 12.22 6.21 12.41 6.3 12.65 C 6.38 12.89 6.45 13.18 6.49 13.51 C 6.52 13.84 6.54 14.21 6.54 14.62 C 6.54 15.02 6.52 15.39 6.49 15.73 C 6.45 16.07 6.38 16.35 6.3 16.6 C 6.21 16.84 6.1 17.03 5.95 17.16 C 5.8 17.29 5.61 17.36 5.4 17.36 C 5.18 17.36 5 17.29 4.85 17.16 C 4.71 17.03 4.59 16.84 4.5 16.6 C 4.41 16.35 4.35 16.07 4.31 15.73 C 4.27 15.39 4.25 15.02 4.25 14.62 C 4.25 14.21 4.27 13.84 4.31 13.51 C 4.35 13.18 4.41 12.89 4.5 12.65 C 4.59 12.41 4.71 12.22 4.85 12.08 C 5 11.95 5.18 11.89 5.4 11.89 z"/></svg>