<svg xmlns="http://www.w3.org/2000/svg" viewBox="0 0 20 20"><path d="M 4.52 1.25 C 4.25 1.81 3.99 2.39 3.73 2.98 C 3.48 3.57 3.22 4.19 2.96 4.85 C 2.7 5.51 2.43 6.21 2.16 6.95 C 1.88 7.69 1.59 8.5 1.29 9.37 L 3.19 9.37 C 3.27 9.09 3.37 8.8 3.47 8.51 C 3.58 8.21 3.68 7.91 3.78 7.62 L 6.95 7.62 C 7.05 7.91 7.15 8.21 7.26 8.51 C 7.36 8.8 7.46 9.09 7.55 9.37 L 9.5 9.37 C 9.2 8.5 8.91 7.69 8.64 6.95 C 8.36 6.21 8.09 5.51 7.83 4.85 C 7.57 4.19 7.31 3.57 7.05 2.98 C 6.8 2.39 6.53 1.81 6.27 1.25 L 4.52 1.25 z M 5.36 3.09 C 5.4 3.21 5.46 3.37 5.54 3.57 C 5.62 3.78 5.71 4.01 5.82 4.28 C 5.92 4.54 6.03 4.83 6.15 5.16 C 6.27 5.48 6.39 5.81 6.51 6.16 L 4.21 6.16 C 4.33 5.81 4.45 5.48 4.58 5.16 C 4.7 4.83 4.81 4.54 4.91 4.28 C 5.01 4.01 5.1 3.78 5.18 3.57 C 5.26 3.37 5.32 3.21 5.36 3.09 z M 13.87 4.3 C 13.8 4.3 13.72 4.34 13.66 4.41 C 13.61 4.49 13.58 4.59 13.58 4.69 L 13.58 11.96 L 12.51 10.89 C 12.44 10.82 12.34 10.78 12.24 10.78 C 12.14 10.78 12.05 10.82 11.98 10.89 L 10.9 11.96 C 10.83 12.03 10.79 12.13 10.79 12.23 C 10.79 12.33 10.83 12.43 10.9 12.5 L 14.48 16.08 C 14.55 16.15 14.65 16.19 14.75 16.19 C 14.85 16.19 14.95 16.15 15.02 16.08 L 18.6 12.5 C 18.67 12.43 18.71 12.33 18.71 12.23 C 18.71 12.13 18.67 12.03 18.6 11.96 L 17.52 10.89 C 17.45 10.82 17.36 10.78 17.26 10.78 C 17.16 10.78 17.06 10.82 16.99 10.89 L 15.92 11.96 L 15.92 4.69 C 15.92 4.59 15.89 4.49 15.84 4.41 C 15.78 4.34 15.71 4.3 15.63 4.3 L 13.87 4.3 z M 2.39 10.63 L 2.39 12.16 L 6.03 12.16 C 5.73 12.53 5.4 12.94 5.04 13.41 C 4.69 13.87 4.34 14.36 4 14.85 C 3.65 15.35 3.32 15.84 3.01 16.33 C 2.69 16.82 2.42 17.26 2.2 17.66 L 2.2 18.75 L 8.59 18.75 L 8.59 17.21 L 4.45 17.21 C 4.73 16.74 5.05 16.25 5.41 15.74 C 5.77 15.22 6.14 14.72 6.5 14.24 C 6.87 13.75 7.23 13.3 7.57 12.89 C 7.91 12.48 8.21 12.15 8.46 11.89 L 8.46 10.63 L 2.39 10.63 z"/></svg>