<svg xmlns="http://www.w3.org/2000/svg" viewBox="0 0 20 20"><path d="M6.88 8.75c-2.07 0-3.75-1.68-3.75-3.75s1.68-3.75 3.75-3.75 3.75 1.68 3.75 3.75-1.68 3.75-3.75 3.75zM17.39 11.88l2.43 2.43c0.06 0.06 0.09 0.14 0.09 0.22 0 0.08-0.03 0.16-0.09 0.22l-1.33 1.33c-0.06 0.06-0.14 0.09-0.22 0.09-0.09 0-0.17-0.03-0.22-0.09l-2.43-2.43-2.43 2.43c-0.06 0.06-0.14 0.09-0.22 0.09-0.08 0-0.16-0.03-0.22-0.09l-1.33-1.33c-0.06-0.06-0.09-0.14-0.09-0.22 0-0.09 0.03-0.17 0.09-0.22l2.43-2.43-2.43-2.43c-0.06-0.06-0.09-0.14-0.09-0.22 0-0.08 0.03-0.16 0.09-0.22l1.33-1.33c0.06-0.06 0.14-0.09 0.22-0.09 0.09 0 0.17 0.03 0.22 0.09l2.43 2.43 2.43-2.43c0.06-0.06 0.14-0.09 0.22-0.09 0.08 0 0.16 0.03 0.22 0.09l1.33 1.33c0.06 0.06 0.09 0.14 0.09 0.22 0 0.09-0.03 0.17-0.09 0.22zM12.53 11.88l-1.77 1.77c-0.23 0.23-0.36 0.56-0.36 0.89 0 0.32 0.13 0.64 0.36 0.88l0.81 0.81c-0.14 0.02-0.28 0.03-0.43 0.03h-8.54c-1.56 0-2.61-0.94-2.61-2.53 0-2.21 0.52-5.6 3.38-5.6 0.16 0 0.26 0.07 0.38 0.17 0.94 0.74 1.89 1.19 3.12 1.19s2.18-0.45 3.12-1.19c0.12-0.1 0.22-0.17 0.38-0.17 0.19 0 0.37 0.02 0.56 0.06-0.32 0.31-0.53 0.57-0.53 1.04 0 0.33 0.13 0.65 0.36 0.89z"/></svg>