<svg xmlns="http://www.w3.org/2000/svg" viewBox="0 0 20 20"><path d="M6.88 8.75c-2.07 0-3.75-1.68-3.75-3.75s1.68-3.75 3.75-3.75 3.75 1.68 3.75 3.75-1.68 3.75-3.75 3.75zM16.25 10h3.44c0.17 0 0.31 0.15 0.31 0.31v1.88c0 0.17-0.15 0.31-0.31 0.31h-3.44v3.44c0 0.17-0.15 0.31-0.31 0.31h-1.88c-0.17 0-0.31-0.15-0.31-0.31v-3.44h-3.44c-0.17 0-0.31-0.15-0.31-0.31v-1.88c0-0.17 0.15-0.31 0.31-0.31h3.44v-3.44c0-0.17 0.15-0.31 0.31-0.31h1.88c0.17 0 0.31 0.15 0.31 0.31v3.44zM9.06 12.19c0 0.68 0.57 1.25 1.25 1.25h2.5v2.32c-0.48 0.35-1.08 0.49-1.67 0.49h-8.54c-1.56 0-2.61-0.94-2.61-2.53 0-2.21 0.52-5.6 3.38-5.6 0.16 0 0.26 0.07 0.38 0.17 0.96 0.73 1.89 1.19 3.12 1.19s2.16-0.46 3.12-1.19c0.12-0.1 0.22-0.17 0.38-0.17 0.83 0 1.56 0.31 2.12 0.94h-2.18c-0.68 0-1.25 0.57-1.25 1.25v1.88z"/></svg>